<?xml version="1.0" encoding="utf-8"?>
<!-- Generator: Adobe Illustrator 23.0.0, SVG Export Plug-In . SVG Version: 6.00 Build 0)  -->
<svg version="1.1" id="Layer_1" xmlns="http://www.w3.org/2000/svg" xmlns:xlink="http://www.w3.org/1999/xlink" x="0px" y="0px"
	 viewBox="0 0 768 768" style="enable-background:new 0 0 768 768;" xml:space="preserve">
<style type="text/css">
	.st0{fill:#FFFFFF;}
	.st1{font-family:'Broadway';}
	.st2{font-size:164.8711px;}
	.st3{fill:none;stroke:#FFFFFF;stroke-width:22;stroke-linecap:round;stroke-linejoin:round;stroke-miterlimit:10;}
</style>
<g>
	<path class="st0" d="M635.6,32c13.2,0,24,10.8,24,24v656c0,13.2-10.8,24-24,24H132.4c-13.2,0-24-10.8-24-24V56
		c0-13.2,10.8-24,24-24H635.6 M635.6,10H132.4c-25.3,0-46,20.7-46,46v656c0,25.3,20.7,46,46,46h503.1c25.3,0,46-20.7,46-46V56
		C681.6,30.7,660.9,10,635.6,10L635.6,10z"/>
</g>
<text transform="matrix(1 0 0 1 127.998 206.3979)" class="st0 st1 st2">MENU</text>
<g>
	<g>
		<line class="st3" x1="146.4" y1="624.4" x2="621.6" y2="624.4"/>
	</g>
	<g>
		<line class="st3" x1="146.4" y1="550.4" x2="621.6" y2="550.4"/>
	</g>
	<g>
		<line class="st3" x1="146.4" y1="476.4" x2="621.6" y2="476.4"/>
	</g>
	<g>
		<line class="st3" x1="146.4" y1="402.4" x2="621.6" y2="402.4"/>
	</g>
	<g>
		<line class="st3" x1="146.4" y1="328.4" x2="621.6" y2="328.4"/>
	</g>
</g>
</svg>
