<?xml version="1.0" encoding="utf-8"?>
<!-- Generator: Adobe Illustrator 23.0.0, SVG Export Plug-In . SVG Version: 6.00 Build 0)  -->
<svg version="1.1" id="Layer_2" xmlns="http://www.w3.org/2000/svg" xmlns:xlink="http://www.w3.org/1999/xlink" x="0px" y="0px"
	 viewBox="0 0 768 768" style="enable-background:new 0 0 768 768;" xml:space="preserve">
<style type="text/css">
	.st0{fill:none;stroke:#FFFFFF;stroke-width:40;stroke-linecap:round;stroke-linejoin:round;stroke-miterlimit:10;}
</style>
<line class="st0" x1="312" y1="68" x2="146" y2="268"/>
<line class="st0" x1="453" y1="68" x2="621" y2="268"/>
<g>
	<path class="st0" d="M678,340c0,12.1-9.9,22-22,22H113c-12.1,0-22-9.9-22-22v-50c0-12.1,9.9-22,22-22h543c12.1,0,22,9.9,22,22V340z
		"/>
</g>
<path class="st0" d="M134.5,368.5l54,298c0,0,2,10,11,18s20,12,20,12h330c0,0,13-2,18-9s11-19,11-19l57-300H134.5z"/>
<line class="st0" x1="258.5" y1="431.5" x2="283.5" y2="633.5"/>
<line class="st0" x1="384.5" y1="431.5" x2="383.5" y2="633.5"/>
<line class="st0" x1="508.5" y1="431.5" x2="484.5" y2="633.5"/>
</svg>
